<?xml version="1.0" encoding="UTF-8"?>
<!DOCTYPE svg PUBLIC "-//W3C//DTD SVG 1.1//EN" "http://www.w3.org/Graphics/SVG/1.1/DTD/svg11.dtd">
<!-- Creator: CorelDRAW X7 -->
<svg xmlns="http://www.w3.org/2000/svg" xml:space="preserve" width="4.3434mm" height="4.3435mm" version="1.1" style="shape-rendering:geometricPrecision; text-rendering:geometricPrecision; image-rendering:optimizeQuality; fill-rule:evenodd; clip-rule:evenodd"
viewBox="0 0 1234 1234"
 xmlns:xlink="http://www.w3.org/1999/xlink">
 <defs>
  <style type="text/css">
   <![CDATA[
    .fil0 {fill:#2B2A29}
   ]]>
  </style>
 </defs>
 <g id="Слой_x0020_1">
  <metadata id="CorelCorpID_0Corel-Layer"/>
  <path class="fil0" d="M404 619c0,-164 182,-278 334,-176 123,81 128,275 -13,359 -104,62 -244,20 -296,-86 -15,-31 -25,-58 -25,-97zm-269 -529l964 0c25,0 45,20 45,45l0 964c0,25 -20,45 -45,45l-964 0c-25,0 -45,-20 -45,-45l0 -964c0,-25 20,-45 45,-45zm0 -90l964 0c75,0 135,61 135,135l0 964c0,75 -60,135 -135,135l-964 0c-74,0 -135,-60 -135,-135l0 -964c0,-74 61,-135 135,-135zm895 276c0,-9 -4,-23 -7,-29 -31,-69 -136,-49 -136,29 0,78 106,98 136,29 3,-6 7,-20 7,-29zm-720 333c0,54 8,98 29,140 50,100 151,177 278,177 79,0 140,-27 196,-71l21 -19c150,-151 110,-399 -84,-496 -87,-44 -203,-39 -286,11 -8,5 -15,9 -23,15 -24,16 -58,50 -75,74 -32,49 -56,104 -56,169z"/>
 </g>
</svg>
