<?xml version="1.0" encoding="UTF-8"?>
<!DOCTYPE svg PUBLIC "-//W3C//DTD SVG 1.1//EN" "http://www.w3.org/Graphics/SVG/1.1/DTD/svg11.dtd">
<!-- Creator: CorelDRAW X7 -->
<svg xmlns="http://www.w3.org/2000/svg" xml:space="preserve" width="4.3434mm" height="4.3435mm" version="1.1" style="shape-rendering:geometricPrecision; text-rendering:geometricPrecision; image-rendering:optimizeQuality; fill-rule:evenodd; clip-rule:evenodd"
viewBox="0 0 1245 1245"
 xmlns:xlink="http://www.w3.org/1999/xlink">
 <defs>
  <style type="text/css">
   <![CDATA[
    .fil0 {fill:#2B2A29}
   ]]>
  </style>
 </defs>
 <g id="Слой_x0020_1">
  <metadata id="CorelCorpID_0Corel-Layer"/>
  <path class="fil0" d="M480 414c-2,-7 9,-16 13,-18 19,-14 57,-15 81,-16 32,0 97,-3 113,17 10,14 10,36 9,55 -1,31 -4,102 -2,128 2,16 9,43 28,36 31,-10 88,-111 106,-152 4,-8 7,-15 10,-23 3,-7 6,-16 9,-22 11,-20 24,-16 50,-16 22,0 43,0 65,0 10,0 21,0 32,-1 29,0 66,-6 51,39 -23,65 -112,158 -130,195 -14,28 2,43 23,62l49 48c20,21 43,46 57,72 11,22 3,35 -15,42 -15,6 -41,5 -59,5 -22,0 -44,0 -66,0 -25,1 -33,1 -53,-10 -39,-20 -69,-72 -100,-95 -38,-28 -53,24 -56,59 -1,23 1,36 -21,43 -13,4 -47,2 -63,2 -39,1 -75,-11 -106,-24 -49,-20 -93,-58 -126,-99 -6,-6 -10,-12 -15,-18 -51,-66 -107,-166 -144,-246 -7,-14 -14,-29 -20,-44 -10,-24 7,-30 28,-31 22,0 43,0 65,0 16,0 50,-3 63,2 19,7 20,19 28,37 21,46 40,84 68,126 82,121 82,2 80,-74 -1,-36 -4,-65 -39,-75 -4,-2 -9,-2 -13,-4zm-344 -414l974 0c74,0 135,61 135,136l0 974c0,74 -61,135 -135,135l-974 0c-75,0 -136,-61 -136,-135l0 -974c0,-75 61,-136 136,-136z"/>
 </g>
</svg>
